<svg xmlns="http://www.w3.org/2000/svg" id="SvgjsSvg5525" width="4096" height="3822.4936091118625" version="1.1" xmlns:xlink="http://www.w3.org/1999/xlink" xmlns:svgjs="http://svgjs.com/svgjs"><defs id="SvgjsDefs5526"></defs><rect id="SvgjsRect5527" width="4096" height="3822.4936091118625" fill="#000000"></rect><g id="SvgjsG5528" transform="translate(328, 328) scale(34.4)" opacity="1"><defs id="SvgjsDefs2333"></defs><g id="SvgjsG2334" transform="scale(0.3230931303019279)" opacity="1"><g id="SvgjsG2335" class="text" transform="translate(154.53, 283.56) scale(1)" light-content="false" fill="#ffffff"><path d="M-152.51 -1.57C-151.17 0.37 -149.16 1.34 -146.48 1.34C-127.1 0.45 -109.35 0 -93.25 0C-75.36 0 -56.88 0.45 -37.79 1.34C-35.11 1.34 -33.1 0.37 -31.76 -1.57C-30.41 -3.5 -29.74 -5.81 -29.74 -8.5C-30.04 -12.67 -30.79 -15.28 -31.98 -16.32C-33.17 -17.37 -35.26 -17.89 -38.24 -17.89L-40.92 -17.89C-49.57 -17.89 -55.98 -19.46 -60.16 -22.59C-64.33 -25.72 -66.94 -29.59 -67.98 -34.22C-69.03 -38.84 -69.7 -44.87 -70 -52.33L-70 -131.49L70.44 -131.49L70.44 -52.33C70.14 -44.87 69.47 -38.84 68.43 -34.22C67.39 -29.59 64.78 -25.72 60.6 -22.59C56.43 -19.46 50.02 -17.89 41.37 -17.89C37.2 -17.89 34.29 -17.44 32.65 -16.55C31.01 -15.65 30.04 -12.97 29.74 -8.5C29.74 -5.81 30.49 -3.5 31.98 -1.57C33.47 0.37 35.41 1.34 37.79 1.34C57.17 0.45 75.66 0 93.25 0C109.95 0 127.84 0.45 146.92 1.34C149.61 1.34 151.62 0.37 152.96 -1.57C154.3 -3.5 154.97 -5.81 154.97 -8.5C154.68 -12.67 153.86 -15.28 152.51 -16.32C151.17 -17.37 149.16 -17.89 146.48 -17.89L143.79 -17.89C135.15 -17.89 128.66 -19.46 124.34 -22.59C120.01 -25.72 117.33 -29.59 116.29 -34.22C115.24 -38.84 114.57 -44.87 114.27 -52.33L114.27 -229.89C114.57 -237.34 115.24 -243.38 116.29 -248C117.33 -252.62 120.01 -256.5 124.34 -259.63C128.66 -262.76 135.15 -264.33 143.79 -264.33C147.67 -264.33 150.43 -264.78 152.07 -265.67C153.71 -266.56 154.68 -269.25 154.97 -273.72C154.97 -276.4 154.3 -278.71 152.96 -280.65C151.62 -282.59 149.61 -283.56 146.92 -283.56C127.84 -282.67 110.1 -282.22 93.7 -282.22C75.81 -282.22 57.17 -282.67 37.79 -283.56C35.41 -283.56 33.47 -282.59 31.98 -280.65C30.49 -278.71 29.74 -276.4 29.74 -273.72C30.04 -269.55 30.86 -266.94 32.2 -265.89C33.54 -264.85 35.71 -264.33 38.69 -264.33L41.37 -264.33C50.02 -264.33 56.43 -262.76 60.6 -259.63C64.78 -256.5 67.39 -252.62 68.43 -248C69.47 -243.38 70.14 -237.34 70.44 -229.89L70.44 -150.73L-70 -150.73L-70 -229.89C-69.7 -237.34 -69.03 -243.38 -67.98 -248C-66.94 -252.62 -64.33 -256.5 -60.16 -259.63C-55.98 -262.76 -49.57 -264.33 -40.92 -264.33C-36.75 -264.33 -33.92 -264.78 -32.43 -265.67C-30.94 -266.56 -30.04 -269.25 -29.74 -273.72C-29.74 -276.4 -30.41 -278.71 -31.76 -280.65C-33.1 -282.59 -35.11 -283.56 -37.79 -283.56C-57.17 -282.67 -75.81 -282.22 -93.7 -282.22C-109.5 -282.22 -127.1 -282.67 -146.48 -283.56C-149.16 -283.56 -151.17 -282.59 -152.51 -280.65C-153.86 -278.71 -154.53 -276.4 -154.53 -273.72C-154.23 -269.55 -153.48 -266.94 -152.29 -265.89C-151.1 -264.85 -149.01 -264.33 -146.03 -264.33L-143.35 -264.33C-134.7 -264.33 -128.29 -262.76 -124.11 -259.63C-119.94 -256.5 -117.33 -252.62 -116.29 -248C-115.24 -243.38 -114.57 -237.34 -114.27 -229.89L-114.27 -52.33C-114.57 -44.87 -115.24 -38.84 -116.29 -34.22C-117.33 -29.59 -119.94 -25.72 -124.11 -22.59C-128.29 -19.46 -134.7 -17.89 -143.35 -17.89C-147.52 -17.89 -150.35 -17.44 -151.84 -16.55C-153.33 -15.65 -154.23 -12.97 -154.53 -8.5C-154.53 -5.81 -153.86 -3.5 -152.51 -1.57Z"></path></g><g id="SvgjsG2336" class="text" transform="translate(155.0004553418878, 250.9631926694388) scale(1)" light-content="false" fill="#ffffff"><path d="M11.04 12.99C12.87 12.99 14.19 12.58 15.01 11.76C15.83 10.95 16.24 9.62 16.24 7.8L16.24 -0.14C21.92 -0.91 26.61 -2.17 30.31 -3.9C34.02 -5.63 36.93 -7.7 39.05 -10.1C41.17 -12.51 42.66 -15.28 43.52 -18.41C44.39 -21.53 44.82 -24.93 44.82 -28.58L44.82 -76.51C44.82 -80.94 44.17 -84.95 42.87 -88.56C41.57 -92.17 39.26 -95.27 35.94 -97.87C32.62 -100.47 28.05 -102.49 22.23 -103.94C16.41 -105.38 9.02 -106.1 0.07 -106.1C-8.88 -106.1 -16.29 -105.38 -22.16 -103.94C-28.03 -102.49 -32.62 -100.47 -35.94 -97.87C-39.26 -95.27 -41.57 -92.17 -42.87 -88.56C-44.17 -84.95 -44.82 -80.94 -44.82 -76.51L-44.82 -28.58C-44.82 -21.36 -42.87 -15.23 -38.98 -10.18C-35.08 -5.12 -27.55 -1.78 -16.38 -0.14L-16.38 7.8C-16.38 9.62 -15.98 10.95 -15.16 11.76C-14.34 12.58 -13.02 12.99 -11.19 12.99ZM-0.94 0L-0.94 -11.12C-11.91 -11.21 -19.37 -13.04 -23.31 -16.6C-27.26 -20.16 -29.23 -24.83 -29.23 -30.6L-29.23 -73.19C-29.23 -78.96 -27.21 -83.65 -23.17 -87.26C-19.13 -90.87 -11.48 -92.68 -0.22 -92.68C11.04 -92.68 18.74 -90.87 22.88 -87.26C27.02 -83.65 29.09 -78.96 29.09 -73.19L29.09 -30.6C29.09 -24.83 27.07 -20.16 23.02 -16.6C18.98 -13.04 11.48 -11.21 0.51 -11.12L0.51 0ZM-27.79 -30.6C-27.79 -25.21 -25.86 -20.86 -22.01 -17.54C-18.16 -14.22 -10.9 -12.56 -0.22 -12.56C10.47 -12.56 17.78 -14.22 21.73 -17.54C25.67 -20.86 27.64 -25.21 27.64 -30.6L27.64 -73.19C27.64 -78.58 25.67 -82.93 21.73 -86.25C17.78 -89.57 10.47 -91.23 -0.22 -91.23C-10.9 -91.23 -18.16 -89.57 -22.01 -86.25C-25.86 -82.93 -27.79 -78.58 -27.79 -73.19ZM-12.05 -31.76L-12.05 -71.17C-12.05 -73 -11.33 -74.56 -9.89 -75.86C-8.44 -77.16 -5.12 -77.81 0.07 -77.81C5.27 -77.81 8.59 -77.16 10.03 -75.86C11.48 -74.56 12.2 -73 12.2 -71.17L12.2 -31.76C12.2 -29.83 11.48 -28.22 10.03 -26.92C8.59 -25.62 5.27 -24.97 0.07 -24.97C-5.12 -24.97 -8.44 -25.62 -9.89 -26.92C-11.33 -28.22 -12.05 -29.83 -12.05 -31.76Z"></path></g></g></g></svg>